<?xml version="1.0" standalone="no"?>
<!DOCTYPE svg PUBLIC "-//W3C//DTD SVG 20010904//EN"
 "http://www.w3.org/TR/2001/REC-SVG-20010904/DTD/svg10.dtd">
<svg version="1.0" xmlns="http://www.w3.org/2000/svg"
 width="16.000000pt" height="16.000000pt" viewBox="0 0 16.000000 16.000000"
 preserveAspectRatio="xMidYMid meet">

<g transform="translate(0.000000,16.000000) scale(0.100000,-0.100000)"
fill="#000000" stroke="none">
<path d="M4 147 c-3 -8 -4 -43 -2 -78 l3 -64 75 0 75 0 0 75 0 75 -73 3 c-55
2 -74 -1 -78 -11z m58 -39 c-6 -7 -12 -26 -15 -43 -4 -28 -4 -27 -6 7 0 20 -7
39 -13 41 -7 3 0 6 16 6 22 1 26 -2 18 -11z m71 -6 c2 12 5 3 5 -22 l2 -45
-20 25 c-15 20 -20 21 -20 8 0 -9 -4 -20 -10 -23 -6 -4 -10 10 -10 36 l0 42
24 -22 24 -23 5 24z"/>
</g>
</svg>
